<svg xmlns="http://www.w3.org/2000/svg" width="380" height="176" viewBox="0 0 380 176">
<rect width="380" height="176" fill="none"/>
<text x="14" y="30" fill="#F7B93E" font-family="Segoe UI, Helvetica, Arial, sans-serif" font-size="16" font-weight="bold">Top Languages</text>
<text x="14" y="56" fill="#586069" font-family="Segoe UI, Helvetica, Arial, sans-serif" font-size="12">JavaScript</text><rect x="120" y="46" width="200" height="9" rx="3" fill="#e1e4e8"/><rect x="120" y="46" width="140" height="9" rx="3" fill="#f1e05a"/><text x="332" y="56" fill="#586069" font-family="Segoe UI, Helvetica, Arial, sans-serif" font-size="11" text-anchor="end">69.9%</text><text x="14" y="82" fill="#586069" font-family="Segoe UI, Helvetica, Arial, sans-serif" font-size="12">CSS</text><rect x="120" y="72" width="200" height="9" rx="3" fill="#e1e4e8"/><rect x="120" y="72" width="27" height="9" rx="3" fill="#563d7c"/><text x="332" y="82" fill="#586069" font-family="Segoe UI, Helvetica, Arial, sans-serif" font-size="11" text-anchor="end">13.4%</text><text x="14" y="108" fill="#586069" font-family="Segoe UI, Helvetica, Arial, sans-serif" font-size="12">Python</text><rect x="120" y="98" width="200" height="9" rx="3" fill="#e1e4e8"/><rect x="120" y="98" width="20" height="9" rx="3" fill="#3572A5"/><text x="332" y="108" fill="#586069" font-family="Segoe UI, Helvetica, Arial, sans-serif" font-size="11" text-anchor="end">10.2%</text><text x="14" y="134" fill="#586069" font-family="Segoe UI, Helvetica, Arial, sans-serif" font-size="12">HTML</text><rect x="120" y="124" width="200" height="9" rx="3" fill="#e1e4e8"/><rect x="120" y="124" width="13" height="9" rx="3" fill="#e34c26"/><text x="332" y="134" fill="#586069" font-family="Segoe UI, Helvetica, Arial, sans-serif" font-size="11" text-anchor="end">6.5%</text>
</svg>