<svg xmlns="http://www.w3.org/2000/svg" width="380" height="228" viewBox="0 0 380 228">
<rect width="380" height="228" fill="none"/>
<text x="14" y="30" fill="#F7B93E" font-family="Segoe UI, Helvetica, Arial, sans-serif" font-size="16" font-weight="bold">Top Languages</text>
<text x="14" y="56" fill="#586069" font-family="Segoe UI, Helvetica, Arial, sans-serif" font-size="12">JavaScript</text><rect x="120" y="46" width="200" height="9" rx="3" fill="#e1e4e8"/><rect x="120" y="46" width="112" height="9" rx="3" fill="#f1e05a"/><text x="332" y="56" fill="#586069" font-family="Segoe UI, Helvetica, Arial, sans-serif" font-size="11" text-anchor="end">56.1%</text><text x="14" y="82" fill="#586069" font-family="Segoe UI, Helvetica, Arial, sans-serif" font-size="12">TypeScript</text><rect x="120" y="72" width="200" height="9" rx="3" fill="#e1e4e8"/><rect x="120" y="72" width="56" height="9" rx="3" fill="#3178c6"/><text x="332" y="82" fill="#586069" font-family="Segoe UI, Helvetica, Arial, sans-serif" font-size="11" text-anchor="end">28.0%</text><text x="14" y="108" fill="#586069" font-family="Segoe UI, Helvetica, Arial, sans-serif" font-size="12">Python</text><rect x="120" y="98" width="200" height="9" rx="3" fill="#e1e4e8"/><rect x="120" y="98" width="17" height="9" rx="3" fill="#3572A5"/><text x="332" y="108" fill="#586069" font-family="Segoe UI, Helvetica, Arial, sans-serif" font-size="11" text-anchor="end">8.3%</text><text x="14" y="134" fill="#586069" font-family="Segoe UI, Helvetica, Arial, sans-serif" font-size="12">CSS</text><rect x="120" y="124" width="200" height="9" rx="3" fill="#e1e4e8"/><rect x="120" y="124" width="9" height="9" rx="3" fill="#563d7c"/><text x="332" y="134" fill="#586069" font-family="Segoe UI, Helvetica, Arial, sans-serif" font-size="11" text-anchor="end">4.3%</text><text x="14" y="160" fill="#586069" font-family="Segoe UI, Helvetica, Arial, sans-serif" font-size="12">PowerShell</text><rect x="120" y="150" width="200" height="9" rx="3" fill="#e1e4e8"/><rect x="120" y="150" width="4" height="9" rx="3" fill="#F7B93E"/><text x="332" y="160" fill="#586069" font-family="Segoe UI, Helvetica, Arial, sans-serif" font-size="11" text-anchor="end">1.9%</text><text x="14" y="186" fill="#586069" font-family="Segoe UI, Helvetica, Arial, sans-serif" font-size="12">Shell</text><rect x="120" y="176" width="200" height="9" rx="3" fill="#e1e4e8"/><rect x="120" y="176" width="3" height="9" rx="3" fill="#89e051"/><text x="332" y="186" fill="#586069" font-family="Segoe UI, Helvetica, Arial, sans-serif" font-size="11" text-anchor="end">1.5%</text>
</svg>